<svg id="Layer_1" data-name="Layer 1" xmlns="http://www.w3.org/2000/svg" viewBox="0 0 1500 340.4"><defs><style>.cls-1{fill:#fff;}</style></defs><path class="cls-1" d="M203,31a74.32,74.32,0,0,0-97.6,38.69L56.25,183.28A74.24,74.24,0,0,0,192.54,242.2l49.09-113.57A74.33,74.33,0,0,0,203,31Zm23.54,91.05L177.4,235.65a57.74,57.74,0,1,1-106-45.82L120.49,76.26a57.74,57.74,0,0,1,106,45.82Z"/><path class="cls-1" d="M184.89,166a7,7,0,0,0-8.28-4.64c-23,5.3-41-2.21-50.52-21.12a7,7,0,0,0-8.68-3.45l-.36.14a7,7,0,0,0-3.79,9.6c12.5,24.87,37.1,35.49,66.64,28.72a7,7,0,0,0,5.1-8.89Z"/><path class="cls-1" d="M862,159a51.27,51.27,0,0,0-11.31-15.89,55.51,55.51,0,0,0-17.54-11.31A57.35,57.35,0,0,0,811,127.6a59.31,59.31,0,0,0-32.09,9,64.33,64.33,0,0,0-22.69,24.21A67.4,67.4,0,0,0,748,193.56a65.46,65.46,0,0,0,8.32,32.53,62.78,62.78,0,0,0,22.88,23.58,62,62,0,0,0,32.47,8.7,58,58,0,0,0,30.18-7.94A49.85,49.85,0,0,0,862,228v16a56.07,56.07,0,0,1-4.77,23.38,38.61,38.61,0,0,1-15.12,17q-10.37,6.48-26.37,6.48-19.71,0-29.55-8.14c-6.57-5.42-10.14-10.12-11.58-18.84h-21c.51,8.47,2.82,13.95,7.27,21.19s11.25,13.14,20.4,17.67,20.63,6.8,34.44,6.8q21.85,0,37-8.84a56.3,56.3,0,0,0,22.69-23.82,74,74,0,0,0,7.5-33.55V131.16H862ZM855,216.31a46.34,46.34,0,0,1-16.65,16.58,44.42,44.42,0,0,1-22.94,6.16,45.8,45.8,0,0,1-23.06-6,44.31,44.31,0,0,1-16.59-16.39,47,47,0,0,1,0-46.33A44.46,44.46,0,0,1,792.45,154a46.14,46.14,0,0,1,23.13-6,44.13,44.13,0,0,1,22.94,6.23,46.34,46.34,0,0,1,16.59,16.64,45,45,0,0,1-.07,45.38Z"/><path class="cls-1" d="M1026,176.39q-17.22-11.32-44.36-15.69-24.81-3.34-36.9-10.29t-12.08-20.18a26.12,26.12,0,0,1,9.25-20.57q9.27-8.1,31.12-8.1,12.86,0,21.92,3.73t13.76,10.47a26.48,26.48,0,0,1,4.69,15.5h22.89q0-14.79-7.27-26T1007.52,87.8q-14.21-6.3-34.26-6.3-21.87,0-36,6.49t-20.77,17.42a46.76,46.76,0,0,0-6.62,24.69q0,16.46,9.45,26.61A58.83,58.83,0,0,0,942.66,172a175.72,175.72,0,0,0,31.88,8q22,3.33,33.82,10.48t11.83,21.4q0,16.08-11.9,24.3T973.9,244.4q-13.89,0-24.3-4.75t-15.94-12.73a29.82,29.82,0,0,1-5.53-17.36H905.37A50,50,0,0,0,913,235.92q7.59,12.47,23.08,20.25T974,264q21.35,0,37-6.18t23.92-17.93q8.29-11.78,8.29-28Q1043.2,187.71,1026,176.39Z"/><path class="cls-1" d="M1106.28,91.58l-22.39.13v39.45h-29.55v19.65h29.55v63.93q0,28.11,11.72,38.66T1125.68,264h24.48v-19h-20.05q-10.68,0-17.25-6.19t-6.58-23v-65h43.88V131.16h-43.88Z"/><path class="cls-1" d="M1266.63,136.85a66.71,66.71,0,0,0-92.41,24.76,71.27,71.27,0,0,0,0,68.54,66.91,66.91,0,0,0,116.61,0,71.39,71.39,0,0,0,0-68.6A65.58,65.58,0,0,0,1266.63,136.85Zm5.31,83.38a44.86,44.86,0,0,1-78.77,0,52.29,52.29,0,0,1,0-48.64,44.86,44.86,0,0,1,16.42-17.11,45.47,45.47,0,0,1,46.05,0,44.56,44.56,0,0,1,16.3,17.11,52.76,52.76,0,0,1,0,48.64Z"/><path class="cls-1" d="M1412.07,236.78a42.85,42.85,0,0,1-23.88,6.83,42.37,42.37,0,0,1-21.54-5.88A44.39,44.39,0,0,1,1350.23,221q-6.26-10.86-6.26-25.14a49.22,49.22,0,0,1,6.26-25,44.32,44.32,0,0,1,16.42-16.74,42.37,42.37,0,0,1,21.54-5.88,44.08,44.08,0,0,1,23.88,6.57,38.47,38.47,0,0,1,15.41,18.83h22.36a64.07,64.07,0,0,0-12.7-23.76,62,62,0,0,0-21.41-16.23,64.77,64.77,0,0,0-27.67-5.88,62.82,62.82,0,0,0-33.35,9.17A66.36,66.36,0,0,0,1331,161.68a71.31,71.31,0,0,0,0,68.34,66.39,66.39,0,0,0,23.75,24.77,62.9,62.9,0,0,0,33.35,9.16,65.17,65.17,0,0,0,27.73-5.88,60.45,60.45,0,0,0,21.48-16.49,63.17,63.17,0,0,0,12.44-24.5h-22.23Q1422.55,230,1412.07,236.78Z"/><path class="cls-1" d="M449.33,93Q427.55,81.64,399,81.63H332.37V264h67q28.42,0,50.14-11.4a81.86,81.86,0,0,0,33.65-32.11q11.93-20.7,11.93-47.79t-12-47.59A82.35,82.35,0,0,0,449.33,93Zm13,116.83A59.87,59.87,0,0,1,437.26,234q-16.29,8.52-38.4,8.52H355.69V102.81h42.63q22.4,0,38.81,8.71a60.37,60.37,0,0,1,25.2,24.67q8.78,15.94,8.79,37T462.33,209.85Z"/><path class="cls-1" d="M553.59,139.14q-10.53,7.86-15.47,21.78V131.27h-21.6V264H539V201.51q0-15.62,5.2-27.06T558.67,157a37.32,37.32,0,0,1,20.94-6.05h11.71V131.27H578.44Q564.13,131.27,553.59,139.14Z"/><path class="cls-1" d="M703.27,199.57q0,21.62-9.55,32.75t-27.51,11.14q-17.84,0-27.45-11.2t-9.61-32.69v-68.3H607.52V200.2q0,21.75,7.4,36t20.62,21q13.2,6.76,30.92,6.77,17.32,0,30.48-6.77t20.62-21.06Q725,221.83,725,200.2V131.27H703.27Z"/></svg>