<svg id="Layer_1" data-name="Layer 1" xmlns="http://www.w3.org/2000/svg" viewBox="0 0 1500 346.27"><defs><style>.cls-1{fill:#5ea3d6;}.cls-2{fill:#21a560;}</style></defs><path class="cls-1" d="M203,36.9a74.34,74.34,0,0,0-97.6,38.69L56.25,189.16a74.24,74.24,0,0,0,136.29,58.91L241.63,134.5A74.33,74.33,0,0,0,203,36.9ZM226.49,128,177.4,241.53a57.74,57.74,0,0,1-106-45.83L120.49,82.13a57.74,57.74,0,0,1,106,45.83Z"/><path class="cls-2" d="M184.89,171.88a7,7,0,0,0-8.28-4.64c-23,5.3-41-2.21-50.52-21.12a7,7,0,0,0-8.68-3.45l-.36.14a7,7,0,0,0-3.79,9.6c12.5,24.87,37.1,35.5,66.64,28.72a7,7,0,0,0,5.1-8.89Z"/><path class="cls-1" d="M862,164.86A51.27,51.27,0,0,0,850.66,149a55.51,55.51,0,0,0-17.54-11.31A57.54,57.54,0,0,0,811,133.47a59.31,59.31,0,0,0-32.09,9,64.33,64.33,0,0,0-22.69,24.21A67.43,67.43,0,0,0,748,199.43,65.44,65.44,0,0,0,756.29,232a62.45,62.45,0,0,0,55.35,32.28,58,58,0,0,0,30.18-7.94A49.8,49.8,0,0,0,862,233.87v16a56.12,56.12,0,0,1-4.77,23.39,38.59,38.59,0,0,1-15.12,17q-10.37,6.48-26.37,6.48-19.71,0-29.55-8.14c-6.57-5.42-10.14-10.12-11.58-18.84h-21c.51,8.47,2.82,13.95,7.27,21.2s11.25,13.13,20.4,17.66,20.63,6.8,34.44,6.8q21.85,0,37-8.83a56.32,56.32,0,0,0,22.69-23.83,74,74,0,0,0,7.5-33.55V137H862ZM855,222.18a46.26,46.26,0,0,1-16.65,16.58,44.43,44.43,0,0,1-22.94,6.17,45.71,45.71,0,0,1-23.06-6,44.31,44.31,0,0,1-16.59-16.39,47,47,0,0,1,0-46.33,44.46,44.46,0,0,1,16.65-16.33,46.14,46.14,0,0,1,23.13-6,44.13,44.13,0,0,1,22.94,6.23,46.29,46.29,0,0,1,16.59,16.65,45,45,0,0,1-.07,45.37Z"/><path class="cls-1" d="M1026,182.26q-17.22-11.31-44.36-15.69-24.81-3.34-36.9-10.28T932.63,136.1a26.14,26.14,0,0,1,9.25-20.57q9.27-8.1,31.12-8.1,12.86,0,21.92,3.73t13.76,10.48a26.45,26.45,0,0,1,4.69,15.49h22.89q0-14.79-7.27-26t-21.47-17.49q-14.21-6.3-34.26-6.3-21.87,0-36,6.49t-20.77,17.43A46.7,46.7,0,0,0,909.87,136q0,16.46,9.45,26.62a58.91,58.91,0,0,0,23.34,15.23,175.72,175.72,0,0,0,31.88,8q22,3.34,33.82,10.48t11.83,21.4q0,16.08-11.9,24.31t-34.39,8.22q-13.89,0-24.3-4.75t-15.94-12.73a29.82,29.82,0,0,1-5.53-17.36H905.37A50,50,0,0,0,913,241.79Q920.54,254.26,936,262t38,7.78q21.35,0,37-6.17t23.92-17.94q8.29-11.76,8.29-28Q1043.2,193.58,1026,182.26Z"/><path class="cls-1" d="M1106.28,97.45l-22.39.13V137h-29.55v19.66h29.55v63.92q0,28.11,11.72,38.66t30.07,10.55h24.48v-19h-20.05q-10.68,0-17.25-6.18t-6.58-23v-65h43.88V137h-43.88Z"/><path class="cls-1" d="M1266.63,142.72a66.7,66.7,0,0,0-92.41,24.77,71.25,71.25,0,0,0,0,68.53,66.91,66.91,0,0,0,116.61,0,71.39,71.39,0,0,0,0-68.6A65.58,65.58,0,0,0,1266.63,142.72Zm5.31,83.39a44.87,44.87,0,0,1-78.77,0,52.29,52.29,0,0,1,0-48.64,44.82,44.82,0,0,1,16.42-17.12,45.47,45.47,0,0,1,46.05,0,44.52,44.52,0,0,1,16.3,17.12,52.76,52.76,0,0,1,0,48.64Z"/><path class="cls-1" d="M1412.07,242.65a42.85,42.85,0,0,1-23.88,6.83,42.37,42.37,0,0,1-21.54-5.88,44.32,44.32,0,0,1-16.42-16.74Q1344,216,1344,201.72a49.22,49.22,0,0,1,6.26-25A44.39,44.39,0,0,1,1366.65,160a42.37,42.37,0,0,1,21.54-5.88,44.08,44.08,0,0,1,23.88,6.57,38.47,38.47,0,0,1,15.41,18.83h22.36a64,64,0,0,0-12.7-23.75,61.9,61.9,0,0,0-21.41-16.24,64.91,64.91,0,0,0-27.67-5.87,62.81,62.81,0,0,0-33.35,9.16A66.36,66.36,0,0,0,1331,167.55a71.31,71.31,0,0,0,0,68.34,66.39,66.39,0,0,0,23.75,24.77,62.9,62.9,0,0,0,33.35,9.16,65.17,65.17,0,0,0,27.73-5.88,60.45,60.45,0,0,0,21.48-16.49,63.17,63.17,0,0,0,12.44-24.5h-22.23Q1422.55,235.83,1412.07,242.65Z"/><path class="cls-1" d="M449.33,98.89Q427.55,87.51,399,87.5H332.37V269.82h67q28.42,0,50.14-11.4a81.84,81.84,0,0,0,33.65-32.1q11.93-20.72,11.93-47.8t-12-47.59A82.35,82.35,0,0,0,449.33,98.89Zm13,116.83a59.89,59.89,0,0,1-25.07,24.14q-16.29,8.5-38.4,8.51H355.69V108.68h42.63q22.4,0,38.81,8.71a60.43,60.43,0,0,1,25.2,24.67q8.78,16,8.79,37T462.33,215.72Z"/><path class="cls-1" d="M553.59,145q-10.53,7.88-15.47,21.79V137.14h-21.6V269.82H539V207.38q0-15.62,5.2-27.06t14.44-17.49a37.4,37.4,0,0,1,20.94-6.05h11.71V137.14H578.44Q564.13,137.14,553.59,145Z"/><path class="cls-1" d="M703.27,205.44q0,21.63-9.55,32.76t-27.51,11.13q-17.84,0-27.45-11.2t-9.61-32.69v-68.3H607.52v68.93q0,21.75,7.4,36t20.62,21q13.2,6.76,30.92,6.77,17.32,0,30.48-6.77T717.56,242Q725,227.7,725,206.07V137.14H703.27Z"/></svg>